HIERARCHY
ROOT Hips
{
	OFFSET 0.000000 0.000000 0.000000 
	CHANNELS 6 Xposition Yposition Zposition Zrotation Yrotation Xrotation
	JOINT LeftUpLeg
	{
		OFFSET 1.363060 -1.794630 0.839290 
		CHANNELS 3 Zrotation Yrotation Xrotation
		JOINT LeftLeg
		{
			OFFSET 2.448110 -6.726130 0.000000 
			CHANNELS 3 Zrotation Yrotation Xrotation
			JOINT LeftFoot
			{
				OFFSET 2.562200 -7.039590 0.000000 
				CHANNELS 3 Zrotation Yrotation Xrotation
				JOINT LeftToeBase
				{
					OFFSET 0.157640 -0.433110 2.322550 
					CHANNELS 3 Zrotation Yrotation Xrotation
					End Site
					{
						OFFSET 0.000000 0.000000 0.000000 
					}
				}
			}
		}
	}
	JOINT RightUpLeg
	{
		OFFSET -1.305520 -1.794630 0.839290 
		CHANNELS 3 Zrotation Yrotation Xrotation
		JOINT RightLeg
		{
			OFFSET -2.542530 -6.985550 0.000000 
			CHANNELS 3 Zrotation Yrotation Xrotation
			JOINT RightFoot
			{
				OFFSET -2.568260 -7.056230 0.000000 
				CHANNELS 3 Zrotation Yrotation Xrotation
				JOINT RightToeBase
				{
					OFFSET -0.164730 -0.452590 2.363150 
					CHANNELS 3 Zrotation Yrotation Xrotation
					End Site
					{
						OFFSET 0.000000 0.000000 0.000000 
					}
				}
			}
		}
	}
	JOINT Spine
	{
		OFFSET 0.028270 2.035590 -0.193380 
		CHANNELS 3 Zrotation Yrotation Xrotation
		JOINT Spine1
		{
			OFFSET 0.056720 2.048850 -0.042750 
			CHANNELS 3 Zrotation Yrotation Xrotation
			JOINT Neck1
			{
				OFFSET -0.054170 1.746240 0.172020 
				CHANNELS 3 Zrotation Yrotation Xrotation
				JOINT Head
				{
					OFFSET 0.104070 1.761360 -0.123970 
					CHANNELS 3 Zrotation Yrotation Xrotation
					End Site
					{
						OFFSET 0.000000 0.000000 0.000000 
					}
				}
			}
			JOINT LeftArm
			{
				OFFSET 3.362410 1.200890 -0.311210 
				CHANNELS 3 Zrotation Yrotation Xrotation
				JOINT LeftForeArm
				{
					OFFSET 4.983000 -0.000000 -0.000000 
					CHANNELS 3 Zrotation Yrotation Xrotation
					JOINT LeftHand
					{
						OFFSET 3.483560 -0.000000 -0.000000 
						CHANNELS 3 Zrotation Yrotation Xrotation
						JOINT LeftHandIndex1
						{
							OFFSET 0.715260 -0.000000 -0.000000 
							CHANNELS 3 Zrotation Yrotation Xrotation
							End Site
							{
								OFFSET 0.000000 0.000000 0.000000 
							}
						}
					}
				}
			}
			JOINT RightArm
			{
				OFFSET -3.136600 1.374050 -0.404650 
				CHANNELS 3 Zrotation Yrotation Xrotation
				JOINT RightForeArm
				{
					OFFSET -5.241900 -0.000000 -0.000000 
					CHANNELS 3 Zrotation Yrotation Xrotation
					JOINT RightHand
					{
						OFFSET -3.444170 -0.000000 -0.000000 
						CHANNELS 3 Zrotation Yrotation Xrotation
						JOINT RightHandIndex1
						{
							OFFSET -0.622530 -0.000000 -0.000000 
							CHANNELS 3 Zrotation Yrotation Xrotation
							End Site
							{
								OFFSET 0.000000 0.000000 0.000000 
							}
						}
					}
				}
			}
		}
	}
}
MOTION
Frames: 18
Frame Time: 0.041667
16.054905 17.885095 -9.822015 -0.203307 -10.281402 1.891169 -17.735208 -3.029728 -9.469800 0.139949 7.624098 23.064927 0.572081 -2.805642 -4.637274 0.040300 -1.296100 -3.563800 17.615104 2.453404 -12.602577 -2.726004 -10.762525 32.500082 1.072723 -7.306306 -8.977001 -0.032200 1.157600 -3.182600 1.586883 -0.503863 0.415819 1.156100 -0.372682 -3.907125 9.959915 -11.548826 14.127841 4.867100 -5.315200 12.642100 -84.481996 -0.926945 26.351433 12.823172 -17.784172 -2.371204 -1.726957 -2.221350 9.279459 -7.125000 0.000000 0.000000 84.193527 0.527123 15.615639 -14.657862 21.685366 -2.978208 0.387727 -0.224661 10.484904 7.125000 0.000000 0.000000 
16.055907 17.884494 -9.820412 -0.157440 -10.309512 1.870241 -17.790638 -3.002071 -9.449356 0.138478 7.619157 23.053474 0.568509 -2.787915 -4.634692 0.039800 -1.288400 -3.542800 17.556949 2.499193 -12.573149 -2.725408 -10.763007 32.498623 1.075559 -7.319881 -8.987918 -0.035200 1.211300 -3.330300 1.582617 -0.488309 0.419365 1.177795 -0.363429 -3.921099 9.912208 -11.548056 14.145378 4.840700 -5.316600 12.645500 -84.480173 -0.907420 26.468724 12.832664 -17.800371 -2.376083 -1.733980 -2.212843 9.053612 -7.125000 0.000000 0.000000 84.156971 0.493012 15.632319 -14.694736 21.739310 -2.993808 0.386544 -0.224585 10.450703 7.125000 0.000000 0.000000 
16.056709 17.886197 -9.820812 -0.181727 -10.315978 1.864213 -17.768327 -2.974738 -9.452783 0.139940 7.619742 23.055755 0.574866 -2.834171 -4.620640 0.043800 -1.351400 -3.716300 17.584347 2.593077 -12.502532 -2.727134 -10.763789 32.500625 1.126038 -7.511260 -8.854097 -0.087900 1.912000 -5.262600 1.580991 -0.491420 0.404751 1.167546 -0.363420 -3.990784 9.934713 -11.519398 14.116654 4.848800 -5.300100 12.621800 -84.408928 -0.876159 26.738126 12.739905 -17.666439 -2.340796 -1.756856 -2.199442 8.886217 -7.125000 0.000000 0.000000 84.168407 0.451706 15.693878 -14.712592 21.761466 -3.000671 0.388753 -0.220432 10.431845 7.125000 0.000000 0.000000 
16.057510 17.887099 -9.822015 -0.227531 -10.311831 1.884576 -17.716883 -2.984187 -9.475879 0.140258 7.621666 23.058210 0.580401 -2.869957 -4.608502 0.043100 -1.339900 -3.684700 17.636468 2.648631 -12.480785 -2.724391 -10.758699 32.484806 1.152817 -7.614553 -8.792323 -0.117100 2.206500 -6.076600 1.590759 -0.476242 0.414195 1.163980 -0.357658 -3.993792 10.014390 -11.497957 14.093106 4.886600 -5.280900 12.630300 -84.402676 -0.945875 26.695752 12.701263 -17.601703 -2.324330 -1.744087 -2.183593 9.168185 -7.125000 0.000000 0.000000 84.136985 0.492101 15.705674 -14.733555 21.792542 -3.009868 0.385994 -0.217745 10.466947 7.125000 0.000000 0.000000 
16.058212 17.887901 -9.820812 -0.252071 -10.334816 1.911672 -17.692710 -2.973238 -9.505811 0.141181 7.626206 23.068109 0.576303 -2.833282 -4.622580 0.046100 -1.386400 -3.812500 17.664740 2.671637 -12.483932 -2.719652 -10.751743 32.461591 1.164380 -7.660365 -8.774601 -0.123500 2.265300 -6.239600 1.611081 -0.426317 0.424894 1.200418 -0.334100 -3.966394 10.020820 -11.491506 14.183805 4.892600 -5.273200 12.699000 -84.455235 -0.996584 26.631696 12.704874 -17.599981 -2.324662 -1.725304 -2.187117 9.387233 -7.125000 0.000000 0.000000 84.079151 0.541970 15.636822 -14.732216 21.790875 -3.008983 0.385648 -0.217822 10.510531 7.125000 0.000000 0.000000 
16.059515 17.890807 -9.820211 -0.343635 -10.332629 1.983690 -17.590533 -2.968348 -9.584266 0.142961 7.634355 23.085351 0.577804 -2.823368 -4.642940 0.056100 -1.528900 -4.205300 17.767441 2.684445 -12.532501 -2.714049 -10.742116 32.432617 1.176133 -7.701041 -8.720676 -0.133100 2.351700 -6.478700 1.638885 -0.394572 0.409100 1.198413 -0.318919 -3.979481 10.044950 -11.475130 14.199068 4.910500 -5.266200 12.702900 -84.502572 -0.913868 26.717854 12.721784 -17.625560 -2.332124 -1.722851 -2.182734 9.258596 -7.125000 0.000000 0.000000 84.031251 0.537654 15.662771 -14.744926 21.807306 -3.013773 0.387134 -0.213657 10.382745 7.125000 0.000000 0.000000 
16.060918 17.893012 -9.820712 -0.388595 -10.329431 2.041417 -17.539816 -2.911678 -9.675358 0.148224 7.643332 23.109600 0.593105 -2.924035 -4.630557 0.056700 -1.536300 -4.225800 17.817875 2.652695 -12.605390 -2.709910 -10.734792 32.408445 1.184473 -7.724376 -8.649296 -0.154400 2.532200 -6.979000 1.650930 -0.383250 0.391516 1.187940 -0.311978 -4.005525 9.976508 -11.442811 14.241512 4.878700 -5.254700 12.709000 -84.531396 -0.842596 26.734666 12.720881 -17.624185 -2.331920 -1.726936 -2.159249 9.266851 -7.125000 0.000000 0.000000 84.000796 0.515026 15.708456 -14.764454 21.836995 -3.022495 0.385514 -0.217018 10.286519 7.125000 0.000000 0.000000 
16.062722 17.893614 -9.821714 -0.387732 -10.314326 2.069760 -17.542670 -2.953063 -9.706386 0.153321 7.654169 23.141802 0.595484 -2.958402 -4.582607 0.047300 -1.403300 -3.859200 17.808584 2.645341 -12.633974 -2.706127 -10.729051 32.389538 1.181457 -7.709710 -8.641442 -0.148200 2.480700 -6.836200 1.647651 -0.385954 0.376775 1.174528 -0.311218 -4.040576 9.909388 -11.386840 14.233336 4.846600 -5.232800 12.676400 -84.544676 -0.816513 26.608233 12.707450 -17.602070 -2.325514 -1.723434 -2.144139 9.470471 -7.125000 0.000000 0.000000 84.011524 0.509992 15.699904 -14.773287 21.848032 -3.025710 0.386636 -0.216974 10.193306 7.125000 0.000000 0.000000 
16.063223 17.891208 -9.822416 -0.388288 -10.307978 2.061675 -17.544336 -2.988276 -9.704681 0.157797 7.664918 23.172773 0.593237 -2.940676 -4.593957 0.049500 -1.435900 -3.948900 17.805989 2.627623 -12.636792 -2.705097 -10.727724 32.389267 1.146712 -7.579396 -8.745609 -0.096700 2.005500 -5.521000 1.646720 -0.393993 0.376797 1.170575 -0.316010 -4.052217 10.006413 -11.306033 14.299816 4.917400 -5.193900 12.701300 -84.542740 -0.843554 26.527788 12.671993 -17.546369 -2.310133 -1.723359 -2.153794 9.590814 -7.125000 0.000000 0.000000 84.019949 0.538375 15.604443 -14.766084 21.835348 -3.021958 0.387233 -0.211620 10.231962 7.125000 0.000000 0.000000 
16.063123 17.887400 -9.822717 -0.389362 -10.324980 2.047535 -17.542944 -3.010899 -9.691606 0.160099 7.671855 23.192023 0.591740 -2.905832 -4.665420 0.055700 -1.523000 -4.189200 17.810526 2.628828 -12.654185 -2.705126 -10.730402 32.400537 1.113091 -7.466806 -8.923899 -0.036300 1.230400 -3.382900 1.639183 -0.370721 0.395402 1.156355 -0.305735 -4.018396 10.040110 -11.278960 14.385695 4.941300 -5.177500 12.746800 -84.508810 -0.866756 26.613068 12.694560 -17.583356 -2.320214 -1.717230 -2.175678 9.567999 -7.125000 0.000000 0.000000 84.041496 0.586804 15.428608 -14.761837 21.831546 -3.020278 0.384942 -0.210238 10.386240 7.125000 0.000000 0.000000 
16.063724 17.886598 -9.823218 -0.366486 -10.308285 2.030140 -17.565394 -2.975128 -9.695510 0.161909 7.672902 23.196728 0.598721 -2.955043 -4.666819 0.058900 -1.566500 -4.309100 17.785835 2.647542 -12.633211 -2.707598 -10.735037 32.413625 1.123020 -7.511346 -8.934773 -0.038400 1.264200 -3.476100 1.622618 -0.352380 0.421464 1.127174 -0.296877 -3.965699 9.988458 -11.303604 14.427793 4.903500 -5.186300 12.763200 -84.498297 -0.892259 26.582088 12.720004 -17.621487 -2.330362 -1.708113 -2.177844 9.661947 -7.125000 0.000000 0.000000 84.090604 0.691243 15.227050 -14.731683 21.790127 -3.007592 0.383615 -0.212130 10.501323 7.125000 0.000000 0.000000 
16.064726 17.889404 -9.822316 -0.393246 -10.286840 2.029079 -17.547223 -2.944819 -9.688467 0.159132 7.665552 23.175521 0.599780 -2.968849 -4.642201 0.063100 -1.621400 -4.460400 17.801728 2.628960 -12.606212 -2.713532 -10.741393 32.433129 1.156439 -7.628165 -8.784446 -0.102600 2.065500 -5.686700 1.626698 -0.323733 0.419677 1.114197 -0.281904 -3.983039 9.931682 -11.320185 14.497541 4.873300 -5.197600 12.782300 -84.503966 -0.846430 26.751540 12.734072 -17.645017 -2.337424 -1.712396 -2.182519 9.539096 -7.125000 0.000000 0.000000 84.098733 0.712988 15.049294 -14.696248 21.741132 -2.992820 0.381285 -0.216577 10.587490 7.125000 0.000000 0.000000 
16.064526 17.892311 -9.823017 -0.396086 -10.263037 2.035656 -17.541089 -3.025053 -9.650944 0.152262 7.653296 23.140135 0.593181 -2.935503 -4.611811 0.059600 -1.575100 -4.332900 17.797558 2.606639 -12.622606 -2.718760 -10.748339 32.454879 1.159929 -7.632981 -8.723427 -0.136400 2.380300 -6.558000 1.654196 -0.312954 0.386910 1.184376 -0.273198 -4.081958 9.849965 -11.272268 14.600509 4.853100 -5.189500 12.803800 -84.561345 -0.766686 26.838855 12.731588 -17.640895 -2.337073 -1.711932 -2.188319 9.482045 -7.125000 0.000000 0.000000 84.036174 0.622788 14.988323 -14.688385 21.726577 -2.988682 0.381441 -0.217769 10.627527 7.125000 0.000000 0.000000 
16.063824 17.893614 -9.824721 -0.347470 -10.197728 2.019080 -17.579865 -3.064440 -9.622539 0.146885 7.639885 23.104542 0.594798 -2.979864 -4.531980 0.054200 -1.502300 -4.132000 17.749128 2.603707 -12.617990 -2.722490 -10.754964 32.474763 1.161335 -7.644902 -8.758851 -0.126200 2.290400 -6.309000 1.671531 -0.348847 0.366042 1.268992 -0.287489 -4.158770 9.783468 -11.185369 14.700400 4.843700 -5.160200 12.830500 -84.619717 -0.744322 26.735174 12.717572 -17.614806 -2.330279 -1.701262 -2.180931 9.648837 -7.125000 0.000000 0.000000 83.974797 0.559543 15.074684 -14.702679 21.741474 -2.993372 0.383954 -0.214751 10.549642 7.125000 0.000000 0.000000 
16.063724 17.894516 -9.825422 -0.323611 -10.127932 2.054613 -17.600030 -3.027862 -9.667775 0.142738 7.630060 23.075502 0.601889 -3.035474 -4.510311 0.065200 -1.647900 -4.533500 17.719081 2.536338 -12.685632 -2.724949 -10.759078 32.485668 1.158126 -7.630160 -8.750319 -0.121100 2.243700 -6.179700 1.674015 -0.359333 0.364834 1.300390 -0.292372 -4.141661 9.795025 -11.135359 14.708482 4.855900 -5.136300 12.827900 -84.591022 -0.772592 26.913075 12.694084 -17.579323 -2.322386 -1.692642 -2.165153 9.535555 -7.125000 0.000000 0.000000 83.955191 0.587081 15.098461 -14.699183 21.735342 -2.991443 0.385615 -0.213405 10.526773 7.125000 0.000000 0.000000 
16.063624 17.894215 -9.824019 -0.302935 -10.100494 2.077675 -17.625772 -2.984150 -9.685347 0.137681 7.617987 23.040542 0.606300 -3.067488 -4.506987 0.075200 -1.769300 -4.868400 17.690277 2.506011 -12.734572 -2.728806 -10.765518 32.504533 1.155369 -7.618160 -8.748391 -0.133100 2.352000 -6.479400 1.670957 -0.341663 0.363282 1.318121 -0.283811 -4.136039 9.876588 -11.072744 14.736107 4.902000 -5.098600 12.846000 -84.556390 -0.787002 27.155485 12.661946 -17.532357 -2.311337 -1.698863 -2.149659 9.305837 -7.125000 0.000000 0.000000 83.960335 0.627443 15.004307 -14.668866 21.692309 -2.978757 0.384798 -0.214252 10.564958 7.125000 0.000000 0.000000 
16.063022 17.893413 -9.822717 -0.281994 -10.083476 2.076298 -17.646626 -2.944150 -9.690778 0.135572 7.611558 23.023405 0.610226 -3.091429 -4.519797 0.101500 -2.054800 -5.657000 17.665268 2.477437 -12.752495 -2.730629 -10.768821 32.513333 1.159939 -7.637652 -8.748634 -0.145000 2.454300 -6.763000 1.674416 -0.331898 0.342223 1.349839 -0.276673 -4.197372 9.903967 -10.967646 14.823842 4.932500 -5.048600 12.874700 -84.559067 -0.720642 27.284409 12.656158 -17.527425 -2.310342 -1.714372 -2.141885 9.110364 -7.125000 0.000000 0.000000 83.936474 0.560248 14.999745 -14.663808 21.684182 -2.976569 0.384153 -0.215792 10.555044 7.125000 0.000000 0.000000 
16.062621 17.894215 -9.822616 -0.211820 -10.036169 2.054917 -17.718005 -2.867274 -9.706789 0.138790 7.611723 23.028469 0.622852 -3.192194 -4.501210 0.124300 -2.272600 -6.259700 17.586377 2.419404 -12.755980 -2.730488 -10.769318 32.511370 1.154340 -7.613214 -8.744580 -0.126000 2.288200 -6.302800 1.680378 -0.340337 0.367298 1.416061 -0.279878 -4.139470 9.771974 -10.921211 15.021520 4.871600 -5.027200 12.989400 -84.595974 -0.778056 27.347644 12.649292 -17.516015 -2.307567 -1.729251 -2.141807 9.011652 -7.125000 0.000000 0.000000 83.878184 0.598197 15.029747 -14.661939 21.681878 -2.975578 0.385190 -0.218144 10.539934 7.125000 0.000000 0.000000 
